<?xml version="1.0" encoding="UTF-8" standalone="no"?>
<!-- Created with Inkscape (http://www.inkscape.org/) -->

<svg
   width="37.552731mm"
   height="31.897812mm"
   viewBox="0 0 37.552731 31.897812"
   version="1.1"
   id="svg1"
   xmlns="http://www.w3.org/2000/svg"
   xmlns:svg="http://www.w3.org/2000/svg">
  <defs
     id="defs1" />
  <g
     id="layer1"
     transform="translate(-101.72914,-202.31669)">
    <path
       id="text3"
       style="font-size:40.0557px;font-family:'Berlin Sans FB';-inkscape-font-specification:'Berlin Sans FB, Normal';font-variant-caps:all-small-caps;text-align:center;text-anchor:middle;opacity:0.966728;fill:#ffcc00;stroke:#000000;stroke-width:0.79375;stroke-linejoin:round;stroke-dasharray:none;paint-order:normal"
       d="m 116.26211,202.71357 c -4.25784,0 -7.71378,1.56153 -10.36784,4.68396 -2.51213,2.95211 -3.76825,6.59948 -3.76825,10.94248 0,4.24366 1.27762,7.84155 3.83233,10.79366 2.69664,3.12242 6.13107,4.68395 10.30376,4.68395 3.57659,0 6.67064,-0.88723 9.28212,-2.66134 0.22708,0.17032 0.74492,0.46122 1.55391,0.87282 0.82319,0.3974 1.34154,0.59583 1.55443,0.59583 0.38322,0 0.56067,-0.15595 0.53227,-0.46819 l -0.0217,-0.29818 c -0.26966,-3.49143 -0.40411,-6.25908 -0.40411,-8.30285 0,-0.49675 0.014,-1.24151 0.0424,-2.235 0.0132,-0.31267 0.0105,-0.43674 0.0196,-0.70022 2.63945,0.0173 4.16132,0.0659 4.47053,0.14831 0.2999,0.0782 0.44959,0.37153 0.44959,0.88005 0,1.17351 -0.0391,2.93381 -0.11731,5.28082 -0.0652,2.34701 -0.0977,4.10731 -0.0977,5.28081 0,0.2999 0.1497,0.4501 0.44959,0.4501 0.24774,0 0.6197,-0.0198 1.11518,-0.0589 0.50852,-0.0391 0.88655,-0.0584 1.13429,-0.0584 0.2347,0 0.58027,0.0193 1.03663,0.0584 0.4694,0.0391 0.81497,0.0589 1.03663,0.0589 0.39117,0 0.58653,-0.1502 0.58653,-0.4501 0,-1.43428 -0.0716,-3.58581 -0.21497,-6.45439 -0.14344,-2.8816 -0.21498,-5.03922 -0.21498,-6.4735 0,-1.51252 0.0649,-3.78127 0.19534,-6.8063 0.13039,-3.03808 0.19534,-5.31343 0.19534,-6.82594 0,-0.28686 -0.16949,-0.43047 -0.5085,-0.43047 -0.2347,0 -0.58635,0.0198 -1.05575,0.0589 -0.46941,0.0391 -0.82157,0.0584 -1.05627,0.0584 -0.24774,0 -0.6131,-0.0193 -1.09554,-0.0584 -0.4694,-0.0391 -0.82764,-0.0589 -1.07538,-0.0589 -0.2999,0 -0.45011,0.13042 -0.45011,0.39119 0,1.09527 0.033,2.74495 0.0982,4.94854 0.0782,2.20358 0.11731,3.85274 0.11731,4.94801 0,0.48244 -0.15021,0.76306 -0.45011,0.8413 -0.39117,0.11735 -2.67311,0.1757 -6.84557,0.1757 -4.26374,0 -6.55836,-0.0583 -6.88434,-0.1757 -0.27382,-0.0782 -0.41082,-0.29999 -0.41082,-0.66508 0,-1.12134 0.0457,-2.8035 0.13694,-5.0462 0.0389,-0.84181 0.0629,-1.52431 0.0873,-2.20814 0.35958,0.1714 0.71543,0.3718 1.0666,0.6072 0.82319,0.55353 1.68892,1.35527 2.59726,2.40554 0.75222,0.86577 1.1856,1.29863 1.29915,1.29863 0.15612,0 0.73794,-0.55332 1.74563,-1.66037 1.02188,-1.12123 1.53272,-1.78102 1.53272,-1.97972 0,-0.14193 -0.0925,-0.34787 -0.27699,-0.61753 -1.20639,-1.78829 -2.82439,-3.19336 -4.85396,-4.21525 -2.01538,-1.03608 -4.11573,-1.55443 -6.30143,-1.55443 z m -1.99936,5.31079 c 0.0317,1.25159 0.0786,2.68335 0.15451,4.45193 0.14343,3.02503 0.21549,5.29378 0.21549,6.8063 0,1.43428 -0.0721,3.5919 -0.21549,6.4735 -0.0497,1.09295 -0.0809,1.98435 -0.11162,2.86908 -1.67786,-0.46849 -3.13435,-1.49623 -4.36666,-3.08922 -1.60378,-2.08634 -2.40553,-4.48511 -2.40553,-7.19594 0,-2.78179 0.78076,-5.19455 2.34197,-7.23832 1.21895,-1.59168 2.68216,-2.61541 4.38733,-3.07733 z m 8.86509,12.6075 c 0.0424,0.6411 0.10049,1.33807 0.18087,2.11512 0.21288,2.31343 0.33385,3.66151 0.36225,4.04471 -1.32194,0.86402 -2.72414,1.46134 -4.20388,1.79937 -0.0134,-0.57266 -0.0234,-1.08841 -0.0424,-1.75906 -0.0652,-2.3079 -0.0982,-4.03572 -0.0982,-5.18315 0,-0.50852 0.14361,-0.80181 0.43047,-0.88005 0.2703,-0.0697 1.44462,-0.11383 3.37085,-0.13694 z" />
  </g>
</svg>
